<?xml version="1.0" encoding="utf-8"?>
<!-- Generator: Adobe Illustrator 19.0.0, SVG Export Plug-In . SVG Version: 6.00 Build 0)  -->
<svg version="1.1" id="Layer_1" xmlns="http://www.w3.org/2000/svg" xmlns:xlink="http://www.w3.org/1999/xlink" x="0px" y="0px"
	 viewBox="0 0 1125.5 222.1" style="enable-background:new 0 0 1125.5 222.1;" xml:space="preserve">
<style type="text/css">
	.st0{display:none;fill:#262626;}
	.st1{fill:#262626;}
	.st2{fill:#FFCE07;}
	.st3{fill:#FFFFFF;}
	.st4{fill:#FFCE07;stroke:#000000;stroke-miterlimit:10;}
	.st5{fill:#FFFFFF;stroke:#000000;stroke-miterlimit:10;}
</style>
<rect id="XMLID_22_" y="40.9" class="st0" width="918.1" height="181.2"/>
<rect id="XMLID_21_" x="-127.9" y="201.9" class="st1" width="100" height="100"/>
<rect id="XMLID_1_" x="-127.9" y="82.1" class="st2" width="100" height="100"/>
<rect id="XMLID_23_" x="-127.9" y="-38.9" class="st3" width="100" height="100"/>
<g id="XMLID_2_">
	<g id="XMLID_3_">
		<path id="XMLID_4_" class="st4" d="M224.1,106.8h8.3l12.6-59.1h-8.3l4.5-21.4h37.1L269.9,66h14.6l8.4-39.6h37l-4.5,21.4h-12.8
			l2.9,8.6l-10.7,50.5h8.1l-4.6,21.5h-37l8.7-40.8h-14.6l-8.7,40.8h-37.1L224.1,106.8z"/>
		<path id="XMLID_6_" class="st4" d="M322.2,98.1l13.4-10.3h23.7l2.6-12.4h-10.5l-1.4,6.5h-21.9l2.6-12.4l13.3-10.4h35.6l8.8,10.2
			l-8.5,39.9h6.5l-4,19h-31.9l1.7-8.1l-11,8.1H327l-9-10.3L322.2,98.1z M354.3,111.6l2.4-11.5h-10.6l-2.4,11.5H354.3z"/>
		<path id="XMLID_9_" class="st4" d="M399.9,58.3h26.4l-4.2,43.6l19-43.6h19.9l0.4,43.6l14-43.6h27l-4.1,19.1h-10.1l2.2,6.4
			l-16.8,44.5h-29.2l-1.5-30.9l-14.7,30.9h-29.3l2.1-50.9h-5.3L399.9,58.3z"/>
		<path id="XMLID_11_" class="st4" d="M497.6,109.6h6l14.2-66.8h-6l4-18.7h31l-14.3,67.2l23.5-32.6h23.7l-4,18.8h-18.4l1,6.3
			l-6.4,8.3l4.3,17.4H569l-4,18.7H536l-6-24.9l-5.3,24.9h-31L497.6,109.6z"/>
	</g>
	<g id="XMLID_13_">
		<path id="XMLID_14_" class="st5" d="M582.4,106.8h7.8l32.4-80.4h46.3l-1.8,80.4h7.2l-4.6,21.5h-34.5l2.1-24.9h-17.3l-8.4,24.9
			h-33.9L582.4,106.8z M636.9,56.1l-10.8,28.8h13.4l2-37.3h-7.6L636.9,56.1z"/>
		<path id="XMLID_17_" class="st5" d="M679.2,128.3l4-19h5.5l6.7-31.5h-5.5l4.1-19.1h31l-10.7,50.6h6.3l-4,19H679.2z M704.7,38.4
			c0.6-3,2.2-5.6,4.6-7.7c2.4-2.1,5-3.2,7.7-3.2c2.7,0,4.9,1,6.4,3.1c1.5,2.1,2,4.7,1.3,7.7c-0.6,2.9-2.1,5.4-4.5,7.4
			c-2.4,2-5,3.1-7.8,3.1c-3,0-5.1-1-6.6-3C704.5,43.9,704.1,41.4,704.7,38.4z"/>
		<path id="XMLID_20_" class="st5" d="M729.8,109.1h6.3l6.8-32h-6.3l4.1-19.4h31.5l-1.8,8.3l10.3-8.3h9.7l9,10.4l-4.4,20.5h-19.9
			l2.4-11.5h-12.4l2.3,6.3l-5.5,25.7h6.5l-4.1,19.3h-38.8L729.8,109.1z"/>
	</g>
	<path id="XMLID_295_" class="st3" d="M838.8,143.8c-3.3,0.6-6.2,1.2-9.1,1.7c-1.4,0.2-2.8,0.4-3.8-1.4c-1-1.9,0.4-2.6,1.3-3.5
		c1.6-1.4,3.3-2.7,5.3-4.3c-4.7-1.7-9.1-3.3-13.6-4.9c4.1-3.7,8.2-3.6,13.2-0.2c-5.3-7.1-11-14.8-17-22.8c2.4-1.2,5.2-2.7,8-4
		c0.7-0.3,1.8,0,2.6,0.4c9.6,4.1,19.2,8.2,28.8,12.5c3.6,1.6,6.8,1.7,10.4-0.3c11.6-6.2,23.4-12.1,35.1-18.1
		c0.3-0.2,0.6-0.4,0.7-1.1c-2.2,0.7-4.4,1.4-7.4,2.3c1-1.6,1.7-2.7,2.5-4c-5.1-1.5-9.9-2.7-14.8,0.8c-0.1-0.2-0.3-0.4-0.4-0.6
		c0.6-1,1.1-2,2-3.7c-10.9-1.2-19.8-5.9-26.3-15c1.9,0.6,4.1,0.8,5.8,1.8c6.3,3.8,13,5.8,20.4,6.2c10.8,0.7,21.6,1.9,32.4,3
		c2.8,0.3,5.2-0.4,7.7-1.7c15.9-8.4,31.8-16.8,47.9-24.7c4.8-2.4,10.3-4.1,15.7-4.7c4.6-0.4,9.4,1.1,14,2.1c2.6,0.6,3.5,3,1.9,5.3
		c-1.5,2.2-3.3,4.4-5.5,5.8c-10.8,6.7-21.9,12.9-32.7,19.6c-4.3,2.6-8.2,5.8-12.3,8.8c-0.3,0.2-0.5,0.6-0.6,0.9c-0.1,0.2,0,0.5,0,1
		c4-2,7.8-4,11.8-5.9c3.3-1.6,4.5-1.2,6.6,1.8c0.1,0.2,0.2,0.3,0.3,0.5c4.2,6.5,3.7,8.6-3.1,12.2c-2.3,1.2-4.6,2.4-7,3.5
		c-1.8,0.8-3.5,2-5.6,0.2c-1.3-1.1-3.8,0.4-4.3,2.2c-0.3,1-0.6,2-0.6,3c-0.1,3-1.3,4.7-4.2,5.8c-4.4,1.7-4.3,1.9-7.6-1.4
		c-1.9-1.9-3.9-3.8-5.8-5.7c0.1-0.3,0.2-0.6,0.3-0.9c1.8,0.4,3.7,0.9,5,1.2c-0.9-1-1.8-2.9-3.4-3.7c-1.6-0.8-4-1.3-5.6-0.7
		c-13.7,4.9-26.8,11.2-40.3,16.6c-10.9,4.4-22.6,7-34,10.4c-0.6,0.2-1.4-0.2-2.5-0.5c-2.1,3.5-2.8,9.3-9.8,9.1
		C840.4,147.1,839.6,145.5,838.8,143.8z"/>
	<path id="XMLID_294_" class="st3" d="M122.5,141.9c0.6-3,185.9,54.8,421.3,44.2c110.2-5,200.4-23.6,260.8-39.1
		c2.7,3.5,5.4,7,8,10.5c-105.6,26.9-262.8,53.2-450.8,33.8C225.8,177.2,122.1,144.1,122.5,141.9z"/>
</g>
</svg>
